<svg xmlns="http://www.w3.org/2000/svg" xmlns:xlink="http://www.w3.org/1999/xlink" width="20" height="20" viewBox="0 0 20 20">
	<defs>
		<clipPath id="clipPath2325595094">
			<path transform="matrix(1 0 0 1 0 0)" d="M0 0L20 0L20 20L0 20L0 0Z" fill-rule="nonzero"/>
		</clipPath>
	</defs>
	<g clip-path="url(#clipPath2325595094)">
		<path transform="matrix(1 0 0 1 1.25 3.125)" d="M15.9375 14.375L1.5625 14.375Q0.656407 14.375 0.0157034 13.7343Q-0.625 13.0936 -0.625 12.1875L-0.625 1.5625Q-0.625 0.656408 0.0157039 0.0157039Q0.656408 -0.625 1.5625 -0.625L4.52695 -0.625Q4.8509 -0.624992 5.16094 -0.531102Q5.47097 -0.437213 5.74049 -0.257499L6.82794 0.467469Q6.94349 0.544519 7.07636 0.584758Q7.20923 0.624996 7.34806 0.625L15.9375 0.625Q16.8436 0.625 17.4843 1.2657Q18.125 1.90641 18.125 2.8125L18.125 12.1875Q18.125 13.0936 17.4843 13.7343Q16.8436 14.375 15.9375 14.375ZM16.875 5L16.875 12.1875Q16.875 12.5758 16.6004 12.8504Q16.3258 13.125 15.9375 13.125L1.5625 13.125Q1.17418 13.125 0.899588 12.8504Q0.625 12.5758 0.625 12.1875L0.625 5L16.875 5ZM16.875 3.75L0.625 3.75L0.625 1.5625Q0.625 1.17417 0.899587 0.899587Q1.17417 0.625 1.5625 0.625L4.52695 0.625Q4.66577 0.625003 4.79864 0.665242Q4.93151 0.70548 5.04701 0.782499L6.13456 1.50753Q6.40403 1.68721 6.71406 1.7811Q7.0241 1.87499 7.34803 1.875L15.9375 1.875Q16.3258 1.875 16.6004 2.14959Q16.875 2.42418 16.875 2.8125L16.875 3.75Z" fill-rule="evenodd" fill="currentColor)"/>
	</g>
</svg>
