<svg xmlns="http://www.w3.org/2000/svg" xmlns:xlink="http://www.w3.org/1999/xlink" width="128" height="128" viewBox="0 0 128 128">
	<defs>
		<clipPath id="clipPath2519400937">
			<path transform="matrix(1 0 0 1 0 0)" d="M0 0L128 0L128 128L0 128L0 0Z" fill-rule="nonzero"/>
		</clipPath>
	</defs>
	<g clip-path="url(#clipPath2519400937)">
		<path transform="matrix(1 0 0 1 16 16)" d="M-5.33333 10.6667C-5.33333 1.83011 1.83011 -5.33333 10.6667 -5.33333L85.3333 -5.33333C94.1699 -5.33333 101.333 1.83011 101.333 10.6667L101.333 85.3333C101.333 94.1699 94.1699 101.333 85.3333 101.333L10.6667 101.333C1.83011 101.333 -5.33333 94.1699 -5.33333 85.3333L-5.33333 10.6667ZM10.6667 5.33333C7.72115 5.33333 5.33333 7.72115 5.33333 10.6667L5.33333 85.3333C5.33333 88.2789 7.72115 90.6667 10.6667 90.6667L85.3333 90.6667C88.2789 90.6667 90.6667 88.2789 90.6667 85.3333L90.6667 10.6667C90.6667 7.72115 88.2789 5.33333 85.3333 5.33333L10.6667 5.33333Z" fill-rule="nonzero" fill="rgb(209, 213, 219)"/>
		<path transform="matrix(1 0 0 1 37.3333 37.3333)" d="M8 -5.33333Q10.7091 -5.33333 13.1916 -4.28334Q15.5853 -3.27088 17.4281 -1.42809Q19.2709 0.414702 20.2833 2.80843Q21.3333 5.29088 21.3333 8Q21.3333 10.7091 20.2833 13.1916Q19.2709 15.5853 17.4281 17.4281Q15.5853 19.2709 13.1916 20.2833Q10.7091 21.3333 8 21.3333Q5.29088 21.3333 2.80843 20.2833Q0.414702 19.2709 -1.42809 17.4281Q-3.27088 15.5853 -4.28334 13.1916Q-5.33333 10.7091 -5.33333 8Q-5.33333 5.29088 -4.28334 2.80843Q-3.27088 0.414702 -1.42809 -1.42809Q0.414704 -3.27089 2.80843 -4.28335Q5.29088 -5.33333 8 -5.33333L8 -5.33333ZM8 5.33333Q7.45393 5.33333 6.96365 5.5407Q6.48606 5.74271 6.11438 6.11438Q5.74271 6.48605 5.5407 6.96365Q5.33333 7.45393 5.33333 8Q5.33333 8.54607 5.5407 9.03635Q5.74271 9.51394 6.11438 9.88562Q6.48605 10.2573 6.96365 10.4593Q7.45392 10.6667 8 10.6667Q8.54607 10.6667 9.03635 10.4593Q9.51395 10.2573 9.88562 9.88562Q10.2573 9.51394 10.4593 9.03635Q10.6667 8.54608 10.6667 8Q10.6667 7.45392 10.4593 6.96365Q10.2573 6.48606 9.88562 6.11438Q9.51395 5.74271 9.03635 5.5407Q8.54607 5.33333 8 5.33333L8 5.33333Z" fill-rule="nonzero" fill="rgb(209, 213, 219)"/>
		<path transform="matrix(1 0 0 1 26.6667 53.3333)" d="M58.6667 7.54247L81.5621 30.4379C83.6449 32.5207 87.0218 32.5207 89.1046 30.4379C91.1873 28.3551 91.1873 24.9782 89.1046 22.8954L62.4379 -3.77124Q62.3453 -3.86381 62.2483 -3.95174Q62.1513 -4.03966 62.0501 -4.12272Q61.9489 -4.20578 61.8437 -4.28377Q61.7386 -4.36177 61.6297 -4.4345Q61.5208 -4.50724 61.4085 -4.57455Q61.2962 -4.64186 61.1808 -4.70358Q61.0653 -4.7653 60.947 -4.82128Q60.8286 -4.87725 60.7076 -4.92736Q60.5867 -4.97746 60.4634 -5.02157Q60.3401 -5.06568 60.2148 -5.10368Q60.0896 -5.14169 59.9626 -5.1735Q59.8356 -5.20531 59.7071 -5.23085Q59.5787 -5.2564 59.4492 -5.27561Q59.3197 -5.29482 59.1894 -5.30765Q59.0591 -5.32048 58.9284 -5.32691Q58.7976 -5.33333 58.6667 -5.33333Q58.5357 -5.33333 58.405 -5.32691Q58.2742 -5.32048 58.1439 -5.30765Q58.0136 -5.29482 57.8841 -5.27561Q57.7546 -5.2564 57.6262 -5.23085Q57.4978 -5.20531 57.3708 -5.1735Q57.2438 -5.14169 57.1185 -5.10368Q56.9932 -5.06568 56.8699 -5.02157Q56.7466 -4.97746 56.6257 -4.92736Q56.5047 -4.87725 56.3864 -4.82128Q56.268 -4.7653 56.1525 -4.70358Q56.0371 -4.64186 55.9248 -4.57455Q55.8125 -4.50724 55.7036 -4.4345Q55.5948 -4.36177 55.4896 -4.28377Q55.3844 -4.20578 55.2832 -4.12272Q55.182 -4.03966 55.085 -3.95174Q54.988 -3.86381 54.8954 -3.77124L-3.77124 54.8954C-5.85401 56.9782 -5.85401 60.3551 -3.77124 62.4379C-1.68846 64.5207 1.68846 64.5207 3.77124 62.4379L58.6667 7.54247Z" fill-rule="evenodd" fill="rgb(209, 213, 219)"/>
	</g>
</svg>
