<svg xmlns="http://www.w3.org/2000/svg" xmlns:xlink="http://www.w3.org/1999/xlink" width="128" height="128" viewBox="0 0 128 128">
	<defs>
		<clipPath id="clipPath7346159927">
			<path transform="matrix(1 0 0 1 0 0)" d="M0 0L128 0L128 128L0 128L0 0Z" fill-rule="nonzero"/>
		</clipPath>
	</defs>
	<g clip-path="url(#clipPath7346159927)">
		<path transform="matrix(1 0 0 1 16 20)" d="M-4 10L-4 28C-4 30.2091 -2.20912 32 0 32C2.20912 32 4 30.2091 4 28L4 10Q4 8.72458 4.42775 7.6919Q4.8555 6.65922 5.75736 5.75736Q6.65922 4.8555 7.6919 4.42775Q8.72458 4 10 4L28.9725 4Q29.8609 4.00002 30.7113 4.25755Q31.5617 4.51507 32.3009 5.008L39.2612 9.6482Q40.9858 10.7982 42.97 11.3991Q44.9542 11.9999 47.0274 12L86 12Q87.2754 12 88.3081 12.4277Q89.3408 12.8555 90.2426 13.7574Q91.1445 14.6592 91.5722 15.6919Q92 16.7246 92 18L92 28C92 30.2091 93.7909 32 96 32C98.2091 32 100 30.2091 100 28L100 18Q100 15.1333 98.9633 12.6304Q97.9266 10.1276 95.8995 8.1005Q93.8724 6.07343 91.3696 5.03671Q88.8667 4 86 4L47.0276 4Q46.1391 3.99998 45.2887 3.74245Q44.4383 3.48492 43.6988 2.9918L36.7391 -1.648Q35.0142 -2.79816 33.03 -3.39905Q31.0458 -3.99995 28.9725 -4L10 -4Q7.13328 -4 4.63043 -2.96328Q2.12758 -1.92657 0.100505 0.100505Q-1.92657 2.12758 -2.96328 4.63043Q-4 7.13328 -4 10Z" fill-rule="evenodd" fill="rgb(96, 165, 250)"/>
		<path transform="matrix(1 0 0 1 7.99566 48)" d="M115.96 9.02777L111.905 50.3903L107.924 50L111.924 50Q111.924 52.8632 110.89 55.3638Q109.855 57.8644 107.833 59.8908Q105.81 61.9172 103.311 62.9561Q100.812 63.995 97.9488 64L14.0668 64Q11.1966 63.995 8.69782 62.9561Q6.19904 61.9172 4.17618 59.8908Q2.15333 57.8644 1.11884 55.3638Q0.0843385 52.8633 0.0843391 50L4.08434 50L0.103424 50.3903L-3.95158 9.02777Q-4.16421 6.37609 -3.36643 4.06871Q-2.56865 1.76133 -0.812765 -0.140422Q0.943121 -2.04217 3.17964 -3.02116Q5.41616 -4.00014 8.00456 -4L104.029 -4Q106.625 -3.99205 108.855 -3.00963Q111.085 -2.02722 112.834 -0.126651Q114.583 1.77392 115.378 4.07766Q116.172 6.38143 115.967 8.95627L115.96 9.02777ZM107.992 8.31873Q108.065 7.40978 107.815 6.6859Q107.565 5.96202 106.948 5.29109Q106.33 4.62017 105.63 4.31147Q104.929 4.00278 104.029 4L8.00412 4Q7.09017 3.99995 6.38759 4.30749Q5.685 4.61503 5.06501 5.28653Q4.44502 5.95802 4.1944 6.68287Q3.94379 7.40771 4.01025 8.24723L8.06525 49.6097Q8.08434 49.8044 8.08434 50Q8.08434 51.2738 8.51121 52.3056Q8.93809 53.3375 9.83799 54.2389Q10.7379 55.1404 11.769 55.5691Q12.8001 55.9978 14.0668 56L97.9348 56Q99.2086 55.9978 100.24 55.5691Q101.271 55.1404 102.171 54.2389Q103.071 53.3375 103.497 52.3056Q103.924 51.2738 103.924 50Q103.924 49.8044 103.943 49.6097L107.998 8.24723L107.992 8.31873Z" fill-rule="nonzero" fill="rgb(96, 165, 250)"/>
	</g>
</svg>
