<svg xmlns="http://www.w3.org/2000/svg" xmlns:xlink="http://www.w3.org/1999/xlink" width="32" height="32" viewBox="0 0 32 32">
	<defs>
		<clipPath id="clipPath0712066298">
			<path transform="matrix(1 0 0 1 0 0)" d="M0 0L32 0L32 32L0 32L0 0Z" fill-rule="nonzero"/>
		</clipPath>
	</defs>
	<g clip-path="url(#clipPath0712066298)">
		<path transform="matrix(1 0 0 1 3 5)" d="M-1 3C-1 0.790861 0.790861 -1 3 -1L23 -1C25.2091 -1 27 0.790861 27 3L27 19C27 21.2091 25.2091 23 23 23L3 23C0.790861 23 -1 21.2091 -1 19L-1 3ZM3 1C1.89543 1 1 1.89543 1 3L1 19C1 20.1046 1.89543 21 3 21L23 21C24.1046 21 25 20.1046 25 19L25 3C25 1.89543 24.1046 1 23 1L3 1Z" fill-rule="nonzero" fill="rgb(37, 99, 235)"/>
		<path transform="matrix(1 0 0 1 19 9)" d="M2 -1Q2.60968 -1 3.16804 -0.763835Q3.70659 -0.536046 4.12132 -0.12132Q4.53605 0.293406 4.76383 0.831958Q5 1.39032 5 2Q5 2.60968 4.76383 3.16804Q4.53605 3.70659 4.12132 4.12132Q3.70659 4.53605 3.16804 4.76383Q2.60968 5 2 5Q1.39032 5 0.831958 4.76383Q0.293405 4.53605 -0.12132 4.12132Q-0.536046 3.70659 -0.763835 3.16804Q-1 2.60968 -1 2Q-1 1.39032 -0.763835 0.831958Q-0.536046 0.293405 -0.12132 -0.12132Q0.293406 -0.536046 0.831958 -0.763835Q1.39032 -1 2 -1L2 -1ZM2 1Q1.58579 1 1.29289 1.29289Q1 1.58579 1 2Q1 2.41421 1.29289 2.70711Q1.58579 3 2 3Q2.41421 3 2.70711 2.70711Q3 2.41421 3 2Q3 1.58579 2.70711 1.29289Q2.41421 1 2 1L2 1Z" fill-rule="nonzero" fill="rgb(37, 99, 235)"/>
		<path transform="matrix(1 0 0 1 3 14.7455)" d="M15.0922 6.74813L9.62731 1.29352Q9.34604 1.01232 8.94932 1.00057Q8.55259 0.988809 8.25578 1.25232L0.664455 8.00183C0.251721 8.36879 -0.380363 8.33169 -0.747328 7.91896C-1.11429 7.50622 -1.07719 6.87414 -0.664455 6.50717L6.92796 -0.243311Q7.81838 -1.03383 9.00856 -0.998557Q10.1987 -0.963289 11.0402 -0.122018L16.5064 5.33391L18.0016 3.83864Q18.8229 3.0157 19.9853 2.96177Q21.1478 2.90784 22.0425 3.65185L26.6405 7.48653C27.0646 7.84025 27.1217 8.47085 26.768 8.89498C26.4142 9.31912 25.7837 9.3762 25.3595 9.02247L20.7638 5.18965Q20.4655 4.94164 20.078 4.95962Q19.6906 4.9776 19.4159 5.25286L11.7071 12.9616C11.3166 13.3521 10.6834 13.3521 10.2929 12.9616C9.90237 12.5711 9.90237 11.9379 10.2929 11.5474L15.0922 6.74813Z" fill-rule="evenodd" fill="rgb(37, 99, 235)"/>
	</g>
</svg>
