<?xml version="1.0" encoding="utf-8" ?>
<svg xmlns="http://www.w3.org/2000/svg" xmlns:xlink="http://www.w3.org/1999/xlink" width="32" height="32" viewBox="0 0 32 32">
	<defs>
		<linearGradient id="linearGradient0284091473" gradientTransform="matrix(32 0 0 32 0 0)" gradientUnits="userSpaceOnUse" x1="0" y1="0.5" x2="1" y2="0.5">
			<stop offset="0" stop-color="rgb(76, 110, 245)"/>
			<stop offset="1" stop-color="rgb(34, 139, 230)"/>
		</linearGradient>
	</defs>
	<path transform="matrix(1 0 0 1 0 0)" d="M8 0C3.58172 0 0 3.58172 0 8L0 24C0 28.4183 3.58172 32 8 32L24 32C28.4183 32 32 28.4183 32 24L32 8C32 3.58172 28.4183 0 24 0L8 0Z" fill-rule="nonzero" fill="url(#linearGradient0284091473)"/>
	<defs>
		<clipPath id="clipPath8037027417">
			<path transform="matrix(1 0 0 1 6 6)" d="M0 0L20 0L20 20L0 20L0 0Z" fill-rule="nonzero"/>
		</clipPath>
	</defs>
	<g clip-path="url(#clipPath8037027417)">
		<defs>
			<clipPath id="clipPath1168216241">
				<path transform="matrix(1 0 0 1 6 6)" d="M0 0L20 0L20 20L0 20L0 0Z" fill-rule="nonzero"/>
			</clipPath>
		</defs>
		<g clip-path="url(#clipPath1168216241)">
			<path transform="matrix(1 0 0 1 7.875 7.875)" d="M-0.625 0.78125C-0.625 0.00459951 0.00459951 -0.625 0.78125 -0.625L6.09375 -0.625C6.8704 -0.625 7.5 0.00459951 7.5 0.78125L7.5 6.09375C7.5 6.8704 6.8704 7.5 6.09375 7.5L0.78125 7.5C0.00459951 7.5 -0.625 6.8704 -0.625 6.09375L-0.625 0.78125ZM0.78125 0.625C0.694956 0.625 0.625 0.694956 0.625 0.78125L0.625 6.09375C0.625 6.18004 0.694956 6.25 0.78125 6.25L6.09375 6.25C6.18004 6.25 6.25 6.18004 6.25 6.09375L6.25 0.78125C6.25 0.694956 6.18004 0.625 6.09375 0.625L0.78125 0.625Z" fill-rule="nonzero" fill="rgb(255, 255, 255)"/>
			<path transform="matrix(1 0 0 1 17.25 7.875)" d="M-0.625 0.78125C-0.625 0.00459951 0.00459951 -0.625 0.78125 -0.625L6.09375 -0.625C6.8704 -0.625 7.5 0.00459951 7.5 0.78125L7.5 6.09375C7.5 6.8704 6.8704 7.5 6.09375 7.5L0.78125 7.5C0.00459951 7.5 -0.625 6.8704 -0.625 6.09375L-0.625 0.78125ZM0.78125 0.625C0.694956 0.625 0.625 0.694956 0.625 0.78125L0.625 6.09375C0.625 6.18004 0.694956 6.25 0.78125 6.25L6.09375 6.25C6.18004 6.25 6.25 6.18004 6.25 6.09375L6.25 0.78125C6.25 0.694956 6.18004 0.625 6.09375 0.625L0.78125 0.625Z" fill-rule="nonzero" fill="rgb(255, 255, 255)"/>
			<path transform="matrix(1 0 0 1 7.875 17.25)" d="M-0.625 0.78125C-0.625 0.00459951 0.00459951 -0.625 0.78125 -0.625L6.09375 -0.625C6.8704 -0.625 7.5 0.00459951 7.5 0.78125L7.5 6.09375C7.5 6.8704 6.8704 7.5 6.09375 7.5L0.78125 7.5C0.00459951 7.5 -0.625 6.8704 -0.625 6.09375L-0.625 0.78125ZM0.78125 0.625C0.694956 0.625 0.625 0.694956 0.625 0.78125L0.625 6.09375C0.625 6.18004 0.694956 6.25 0.78125 6.25L6.09375 6.25C6.18004 6.25 6.25 6.18004 6.25 6.09375L6.25 0.78125C6.25 0.694956 6.18004 0.625 6.09375 0.625L0.78125 0.625Z" fill-rule="nonzero" fill="rgb(255, 255, 255)"/>
			<path transform="matrix(1 0 0 1 17.25 17.25)" d="M-0.625 0.78125C-0.625 0.00459951 0.00459951 -0.625 0.78125 -0.625L6.09375 -0.625C6.8704 -0.625 7.5 0.00459951 7.5 0.78125L7.5 6.09375C7.5 6.8704 6.8704 7.5 6.09375 7.5L0.78125 7.5C0.00459951 7.5 -0.625 6.8704 -0.625 6.09375L-0.625 0.78125ZM0.78125 0.625C0.694956 0.625 0.625 0.694956 0.625 0.78125L0.625 6.09375C0.625 6.18004 0.694956 6.25 0.78125 6.25L6.09375 6.25C6.18004 6.25 6.25 6.18004 6.25 6.09375L6.25 0.78125C6.25 0.694956 6.18004 0.625 6.09375 0.625L0.78125 0.625Z" fill-rule="nonzero" fill="rgb(255, 255, 255)"/>
		</g>
	</g>
</svg>
